:FULLY-SPECIFIED
:FORCE-ALL-JOINTS-BE-3DOF
:DEGREES
204
root 4.84464 15.0368 -25.4604 7.75184 1.07194 5.47919
lfemur 5.64019 1.33211 0.692894
ltibia 7.72391 -0 0
lfoot -34.454 -9.60046 0.565479
ltoes 46.0765 -0 0
rfemur -29.9121 -19.0881 -8.83348
rtibia 53.5495 -0 0
rfoot -24.8865 14.6551 -1.18529
rtoes 62.0634 -0 0
lowerback -3.25653 -1.87098 -0.513828
upperback -0.835859 -2.44343 -7.48592
thorax 0.721698 -1.22047 -7.57805
lowerneck -11.2806 -0.231082 6.38186
upperneck 3.83777 -1.41715 2.71535
head 3.26543 -0.475736 -0.315574
lclavicle -3.1803e-15 -5.99266e-14 -3.64614e-30
lhumerus -59.7815 -47.766 117.887
lradius 54.0412 -0 0
lwrist 24.7417 0 0
lhand 41.8743 30.0624 -0.283874
lfingers 7.12502 -0 0
lthumb 64.0869 39.8688 -0.0616091
rclavicle -3.1803e-15 -5.99266e-14 -3.64614e-30
rhumerus -4.98164 -25.8078 -17.9898
rradius 56.8109 -0 0
rwrist -22.4549 0 0
rhand -38.749 -58.3532 -0.230986
rfingers 7.12502 -0 0
rthumb -11.7453 -88.1364 -0.254045
205
root 4.83905 15.0345 -25.4602 7.49729 -0.261825 5.54435
lfemur 6.65044 -0.18113 0.772112
ltibia 6.64366 -0 0
lfoot -35.3194 -10.7148 0.294877
ltoes 46.5169 -0 0
rfemur -30.8257 -19.6068 -8.67609
rtibia 52.3632 -0 0
rfoot -25.7373 16.5102 -0.612416
rtoes 61.2277 -0 0
lowerback -3.12886 -1.63717 -0.486515
upperback -0.767278 -2.11913 -7.58266
thorax 0.725071 -1.06462 -7.70346
lowerneck -11.3418 0.0574694 6.68692
upperneck 3.85763 -1.07108 2.54394
head 3.26791 -0.305822 -0.407276
lclavicle -6.63055e-15 -6.10022e-14 -1.90021e-30
lhumerus -59.62 -47.436 117.236
lradius 54.0347 -0 0
lwrist 25.0362 0 0
lhand 41.3101 29.8707 -0.146582
lfingers 7.12502 -0 0
lthumb 63.5515 39.8792 -0.0321241
rclavicle -6.63055e-15 -6.10022e-14 -1.90021e-30
rhumerus -3.64669 -26.3218 -16.0235
rradius 55.1623 -0 0
rwrist -22.1361 0 0
rhand -38.5529 -59.2588 -0.127872
rfingers 7.12502 -0 0
rthumb -11.5639 -88.9888 -0.139359
206
root 4.83833 15.0352 -25.4604 7.21493 -1.61263 5.61233
lfemur 7.67108 -1.71991 0.80445
ltibia 5.56251 0 0
lfoot -36.1723 -11.8531 0
ltoes 46.9532 0 0
rfemur -31.8077 -20.1323 -8.48266
rtibia 51.1441 0 0
rfoot -26.5461 18.393 0
rtoes 60.2851 0 0
lowerback -2.9768 -1.39862 -0.460177
upperback -0.690901 -1.78726 -7.67034
thorax 0.723885 -0.905881 -7.81859
lowerneck -11.4038 0.350607 6.99238
upperneck 3.87329 -0.719088 2.3666
head 3.26906 -0.133286 -0.50078
lclavicle -1.02374e-14 -6.20208e-14 0
lhumerus -59.4198 -47.063 116.529
lradius 54.0214 0 0
lwrist 25.3219 0 0
lhand 40.6919 29.6464 0
lfingers 7.12502 0 0
lthumb 62.9662 39.8829 0
rclavicle -1.02374e-14 -6.20208e-14 0
rhumerus -2.33153 -26.8475 -14.0552
rradius 53.4839 0 0
rwrist -21.7815 0 0
rhand -38.3067 -60.1346 0
rfingers 7.12502 0 0
rthumb -11.335 -449.808 0
207
root 4.84103 15.0349 -25.4601 7.31478 -1.50625 5.51331
lfemur 7.43764 -1.77085 0.899195
ltibia 5.69613 -0 0
lfoot -36.3028 -11.9808 -0.0520557
ltoes 46.9738 -0 0
rfemur -31.5848 -19.9586 -8.44735
rtibia 50.6924 -0 0
rfoot -27.1208 18.2772 0.239861
rtoes 60.4037 -0 0
lowerback -3.00317 -1.35233 -0.413654
upperback -0.710765 -1.72723 -7.60638
thorax 0.719666 -0.876091 -7.78229
lowerneck -11.3986 0.364948 7.0125
upperneck 3.87325 -0.698337 2.30714
head 3.26421 -0.125236 -0.522308
lclavicle -1.0953e-14 -6.16878e-14 3.76064e-31
lhumerus -59.5271 -46.9524 116.648
lradius 54.1608 -0 0
lwrist 25.3699 0 0
lhand 40.2735 29.5081 0.0670977
lfingers 7.12502 -0 0
lthumb 62.5783 39.9185 -0.000929218
rclavicle -1.0953e-14 -6.16878e-14 3.76064e-31
rhumerus -2.21836 -26.8883 -13.9561
rradius 53.0979 -0 0
rwrist -21.3573 0 0
rhand -38.202 -60.1813 0.0235336
rfingers 7.12502 -0 0
rthumb -11.2341 -89.8517 0.0229903
208
root 4.85238 15.0382 -25.4601 7.42049 -1.35064 5.40184
lfemur 7.15348 -1.78273 0.99166
ltibia 5.87955 -0 0
lfoot -36.4114 -12.0932 -0.101833
ltoes 46.9788 -0 0
rfemur -31.3378 -19.7555 -8.40227
rtibia 50.2277 -0 0
rfoot -27.7064 18.1008 0.482613
rtoes 60.5153 -0 0
lowerback -3.02564 -1.308 -0.364633
upperback -0.731031 -1.66999 -7.52948
thorax 0.713123 -0.847865 -7.73377
lowerneck -11.3918 0.372235 7.02396
upperneck 3.87116 -0.685379 2.24573
head 3.2584 -0.12132 -0.543323
lclavicle -1.168e-14 -6.12618e-14 7.54992e-31
lhumerus -59.6288 -46.8249 116.772
lradius 54.3099 -0 0
lwrist 25.4079 0 0
lhand 39.8137 29.3498 0.139185
lfingers 7.12502 -0 0
lthumb 62.1524 39.9541 -0.00161106
rclavicle -1.168e-14 -6.12618e-14 7.54992e-31
rhumerus -2.14423 -26.899 -13.9139
rradius 52.7224 -0 0
rwrist -20.8905 0 0
rhand -38.0719 -60.1873 0.0550171
rfingers 7.12502 -0 0
rthumb -11.1087 -89.8547 0.0536336
209
root 4.87187 15.045 -25.4604 7.53153 -1.14605 5.27839
lfemur 6.81945 -1.75519 1.08122
ltibia 6.11238 -0 0
lfoot -36.4977 -12.1899 -0.149032
ltoes 46.9681 -0 0
rfemur -31.0676 -19.5235 -8.34722
rtibia 49.7515 -0 0
rfoot -28.3012 17.8639 0.726438
rtoes 60.6193 -0 0
lowerback -3.04411 -1.26581 -0.313271
upperback -0.751617 -1.61574 -7.43985
thorax 0.704277 -0.821307 -7.67314
lowerneck -11.3835 0.372405 7.02666
upperneck 3.86701 -0.680307 2.18257
head 3.25163 -0.121574 -0.563748
lclavicle -1.24158e-14 -6.07436e-14 1.1336e-30
lhumerus -59.7243 -46.6811 116.902
lradius 54.4683 -0 0
lwrist 25.4356 0 0
lhand 39.3139 29.1719 0.215633
lfingers 7.12502 -0 0
lthumb 61.69 39.9896 -0.00200948
rclavicle -1.24158e-14 -6.07436e-14 1.1336e-30
rhumerus -2.10961 -26.8793 -13.9289
rradius 52.3589 -0 0
rwrist -20.3824 0 0
rhand -37.9167 -60.1521 0.094244
rfingers 7.12502 -0 0
rthumb -10.959 -89.8167 0.0917281
210
root 4.89898 15.055 -25.461 7.64732 -0.89271 5.14348
lfemur 6.43641 -1.68788 1.16713
ltibia 6.39422 -0 0
lfoot -36.5612 -12.2705 -0.193366
ltoes 46.9416 -0 0
rfemur -30.7748 -19.2632 -8.28198
rtibia 49.2654 -0 0
rfoot -28.9036 17.5668 0.969508
rtoes 60.7154 -0 0
lowerback -3.05849 -1.22594 -0.259722
upperback -0.772442 -1.5647 -7.33769
thorax 0.693141 -0.796519 -7.60049
lowerneck -11.3738 0.365398 7.02052
upperneck 3.86081 -0.68321 2.11787
head 3.24392 -0.126034 -0.583505
lclavicle -1.31579e-14 -6.01344e-14 1.50872e-30
lhumerus -59.8132 -46.5212 117.036
lradius 54.6354 -0 0
lwrist 25.453 0 0
lhand 38.7754 28.9746 0.295786
lfingers 7.12502 -0 0
lthumb 61.1924 40.0247 -0.00209237
rclavicle -1.31579e-14 -6.01344e-14 1.50872e-30
rhumerus -2.11502 -26.8289 -14.0016
rradius 52.0086 -0 0
rwrist -19.8346 0 0
rhand -37.7366 -60.0756 0.140952
rfingers 7.12502 -0 0
rthumb -10.7853 -89.7373 0.137018
211
root 4.93319 15.0681 -25.4619 7.76726 -0.590868 4.99761
lfemur 6.00521 -1.58047 1.24856
ltibia 6.7247 -0 0
lfoot -36.6013 -12.3345 -0.234567
ltoes 46.8992 -0 0
rfemur -30.4602 -18.9755 -8.20633
rtibia 48.771 -0 0
rfoot -29.5119 17.2098 1.20999
rtoes 60.8031 -0 0
lowerback -3.06868 -1.18856 -0.204144
upperback -0.793429 -1.51708 -7.22322
thorax 0.679733 -0.773604 -7.51594
lowerneck -11.3626 0.351152 7.00545
upperneck 3.85259 -0.694182 2.05183
head 3.2353 -0.134737 -0.602514
lclavicle -1.39038e-14 -5.94352e-14 1.87726e-30
lhumerus -59.8948 -46.3457 117.173
lradius 54.8109 -0 0
lwrist 25.4597 0 0
lhand 38.1996 28.7584 0.378966
lfingers 7.12502 -0 0
lthumb 60.6608 40.0594 -0.00183191
rclavicle -1.39038e-14 -5.94352e-14 1.87726e-30
rhumerus -2.16107 -26.7477 -14.1325
rradius 51.6731 -0 0
rwrist -19.2485 0 0
rhand -37.532 -59.9574 0.194825
rfingers 7.12502 -0 0
rthumb -10.5879 -89.6163 0.189197
212
root 4.97402 15.084 -25.463 7.89075 -0.240768 4.84131
lfemur 5.52668 -1.43267 1.32457
ltibia 7.10342 -0 0
lfoot -36.6177 -12.3814 -0.272384
ltoes 46.8407 -0 0
rfemur -30.1247 -18.6609 -8.12004
rtibia 48.2699 -0 0
rfoot -30.1244 16.7933 1.44608
rtoes 60.8819 -0 0
lowerback -3.07457 -1.15383 -0.146691
upperback -0.814505 -1.47309 -7.09662
thorax 0.664064 -0.75266 -7.41961
lowerneck -11.3499 0.329606 6.98136
upperneck 3.84234 -0.713313 1.98468
head 3.22578 -0.14772 -0.620696
lclavicle -1.46509e-14 -5.86469e-14 2.23615e-30
lhumerus -59.9688 -46.1548 117.315
lradius 54.9942 -0 0
lwrist 25.4557 0 0
lhand 37.5879 28.5235 0.464476
lfingers 7.12502 -0 0
lthumb 60.0965 40.0936 -0.00120499
rclavicle -1.46509e-14 -5.86469e-14 2.23615e-30
rhumerus -2.24843 -26.6357 -14.3219
rradius 51.3537 -0 0
rwrist -18.6254 0 0
rhand -37.303 -59.7971 0.255492
rfingers 7.12502 -0 0
rthumb -10.3669 -89.4535 0.247903
213
root 5.02093 15.1027 -25.4645 8.01715 0.157345 4.67507
lfemur 5.00166 -1.2442 1.39412
ltibia 7.52999 -0 0
lfoot -36.6098 -12.4108 -0.306586
ltoes 46.7662 -0 0
rfemur -29.7688 -18.3202 -8.02283
rtibia 47.7636 -0 0
rfoot -30.7392 16.3176 1.67597
rtoes 60.9515 -0 0
lowerback -3.07607 -1.12195 -0.0875208
upperback -0.8356 -1.43294 -6.9581
thorax 0.646146 -0.733787 -7.31159
lowerneck -11.3358 0.300701 6.94816
upperneck 3.83008 -0.740695 1.91662
head 3.21538 -0.165017 -0.637973
lclavicle -1.53967e-14 -5.77706e-14 2.58244e-30
lhumerus -60.0346 -45.9491 117.459
lradius 55.1849 -0 0
lwrist 25.4407 0 0
lhand 36.9416 28.2703 0.551602
lfingers 7.12502 -0 0
lthumb 59.501 40.1271 -0.000193451
rclavicle -1.53967e-14 -5.77706e-14 2.58244e-30
rhumerus -2.37784 -26.4931 -14.5704
rradius 51.0518 -0 0
rwrist -17.9669 0 0
rhand -37.0499 -59.5945 0.322526
rfingers 7.12502 -0 0
rthumb -10.1228 -89.2484 0.312724
214
root 5.07341 15.1238 -25.4663 8.14581 0.60322 4.49942
lfemur 4.43096 -1.01481 1.45607
ltibia 8.00403 -0 0
lfoot -36.5772 -12.4222 -0.336964
ltoes 46.6755 -0 0
rfemur -29.3933 -17.954 -7.91446
rtibia 47.2539 -0 0
rfoot -31.3547 15.7833 1.89791
rtoes 61.0114 -0 0
lowerback -3.07308 -1.09307 -0.0267907
upperback -0.856648 -1.39685 -6.80787
thorax 0.625991 -0.717082 -7.192
lowerneck -11.3203 0.264377 6.90576
upperneck 3.81582 -0.77642 1.84787
head 3.20412 -0.186666 -0.654266
lclavicle -1.61387e-14 -5.68073e-14 2.91327e-30
lhumerus -60.0918 -45.7288 117.606
lradius 55.3825 -0 0
lwrist 25.4146 0 0
lhand 36.2621 27.9991 0.639619
lfingers 7.12502 -0 0
lthumb 58.8755 40.1598 0.00121552
rclavicle -1.61387e-14 -5.68073e-14 2.91327e-30
rhumerus -2.55013 -26.32 -14.8786
rradius 50.7688 -0 0
rwrist -17.2744 0 0
rhand -36.773 -59.3493 0.395449
rfingers 7.12502 -0 0
rthumb -9.85552 -89.0008 0.383196
215
root 5.13097 15.1472 -25.4683 8.27608 1.0966 4.31485
lfemur 3.81535 -0.744288 1.50918
ltibia 8.52516 -0 0
lfoot -36.5194 -12.4152 -0.363331
ltoes 46.5685 -0 0
rfemur -28.9989 -17.5631 -7.79465
rtibia 46.7421 -0 0
rfoot -31.9689 15.1908 2.11017
rtoes 61.0612 -0 0
lowerback -3.06551 -1.06739 0.0353418
upperback -0.877586 -1.36504 -6.64612
thorax 0.603605 -0.702641 -7.06093
lowerneck -11.3033 0.220577 6.85406
upperneck 3.79958 -0.820579 1.77863
head 3.192 -0.212703 -0.669495
lclavicle -1.68743e-14 -5.57581e-14 3.22592e-30
lhumerus -60.14 -45.4944 117.755
lradius 55.5864 -0 0
lwrist 25.3771 0 0
lhand 35.5507 27.7103 0.727793
lfingers 7.12502 -0 0
lthumb 58.2213 40.1916 0.00302919
rclavicle -1.68743e-14 -5.57581e-14 3.22592e-30
rhumerus -2.7662 -26.1168 -15.247
rradius 50.5061 -0 0
rwrist -16.5493 0 0
rhand -36.4724 -59.0611 0.473727
rfingers 7.12502 -0 0
rthumb -9.56544 -88.7104 0.458804
216
root 5.19309 15.1727 -25.4707 8.40727 1.63724 4.12185
lfemur 3.15559 -0.432477 1.55213
ltibia 9.09298 -0 0
lfoot -36.4358 -12.3893 -0.385525
ltoes 46.4451 -0 0
rfemur -28.5864 -17.1481 -7.66314
rtibia 46.23 -0 0
rfoot -32.58 14.5406 2.31108
rtoes 61.1004 -0 0
lowerback -3.05325 -1.04507 0.0987182
upperback -0.898356 -1.3377 -6.47307
thorax 0.578995 -0.690559 -6.91851
lowerneck -11.2849 0.169242 6.79298
upperneck 3.78136 -0.873264 1.70912
head 3.17905 -0.243163 -0.68358
lclavicle -1.76011e-14 -5.46239e-14 3.5178e-30
lhumerus -60.1787 -45.2463 117.906
lradius 55.7962 -0 0
lwrist 25.3281 0 0
lhand 34.8089 27.4044 0.815385
lfingers 7.12502 -0 0
lthumb 57.5397 40.2222 0.00524901
rclavicle -1.76011e-14 -5.46239e-14 3.5178e-30
rhumerus -3.027 -25.8841 -15.6762
rradius 50.265 -0 0
rwrist -15.793 0 0
rhand -36.1484 -58.7295 0.556774
rfingers 7.12502 -0 0
rthumb -9.25271 -88.3768 0.538978
